<?xml version="1.0" encoding="UTF-8" standalone="no"?>
<!DOCTYPE svg PUBLIC "-//W3C//DTD SVG 1.1//EN" "http://www.w3.org/Graphics/SVG/1.1/DTD/svg11.dtd">
<!-- Generated by Microsoft Visio, SVG Export design-black.svg Design (black) -->
<svg xmlns="http://www.w3.org/2000/svg" xmlns:xlink="http://www.w3.org/1999/xlink" xmlns:ev="http://www.w3.org/2001/xml-events"
		width="4.8226in" height="3.42853in" viewBox="0 0 347.227 246.854" xml:space="preserve" color-interpolation-filters="sRGB"
		class="st16">
	<style type="text/css">
	<![CDATA[
		.st1 {fill:#000000;stroke:none;stroke-linecap:round;stroke-linejoin:round;stroke-width:0.75}
		.st2 {fill:#000000;stroke:#ffffff;stroke-linecap:round;stroke-linejoin:round;stroke-width:0.24}
		.st3 {fill:#000000;stroke:none;stroke-linecap:butt;stroke-width:7.2}
		.st4 {fill:#ffffff;font-family:LM Sans 10;font-size:1.16666em}
		.st5 {baseline-shift:-29.9998%;font-size:0.599996em}
		.st6 {fill:#000000;stroke:none;stroke-linecap:butt}
		.st7 {marker-end:url(#mrkr4-46);stroke:#ffffff;stroke-linecap:round;stroke-linejoin:round;stroke-width:0.75}
		.st8 {fill:#ffffff;fill-opacity:1;stroke:#ffffff;stroke-opacity:1;stroke-width:0.22935779816514}
		.st9 {fill:#ffffff;font-family:LM Sans 10;font-size:0.833336em}
		.st10 {baseline-shift:-29.9995%;font-size:0.599989em}
		.st11 {marker-end:url(#mrkr4-96);stroke:#ffffff;stroke-linecap:round;stroke-linejoin:round;stroke-width:0.75}
		.st12 {stroke:#ffffff;stroke-linecap:round;stroke-linejoin:round;stroke-width:0.75}
		.st13 {fill:#ffffff;font-family:LM Sans 10;font-size:0.666664em}
		.st14 {marker-end:url(#mrkr16-140);stroke:#ffffff;stroke-dasharray:5.25,3.75;stroke-linecap:round;stroke-linejoin:round;stroke-width:0.75}
		.st15 {fill:#ffffff;fill-opacity:1;stroke:#ffffff;stroke-opacity:1;stroke-width:0.29411764705882}
		.st16 {fill:none;fill-rule:evenodd;font-size:12px;overflow:visible;stroke-linecap:square;stroke-miterlimit:3}
	]]>
	</style>

	<defs id="Markers">
		<g id="lend4">
			<path d="M 2 1 L 0 0 L 2 -1 L 2 1 " style="stroke:none"/>
		</g>
		<marker id="mrkr4-46" class="st8" refX="-8.72" orient="auto" markerUnits="strokeWidth" overflow="visible">
			<use xlink:href="#lend4" transform="scale(-4.36,-4.36) "/>
		</marker>
		<marker id="mrkr4-96" class="st8" refX="-8.24" orient="auto" markerUnits="strokeWidth" overflow="visible">
			<use xlink:href="#lend4" transform="scale(-4.36,-4.36) "/>
		</marker>
		<g id="lend16">
			<path d="M 0 0 L 2 -1 L 2 1 L 0 0 " style="stroke-linecap:round;stroke-linejoin:round;fill:none"/>
		</g>
		<marker id="mrkr16-140" class="st15" refX="-6.8" orient="auto" markerUnits="strokeWidth" overflow="visible">
			<use xlink:href="#lend16" transform="scale(-3.4,-3.4) "/>
		</marker>
	</defs>
	<g>
		<title>VBackground-1</title>
		<g id="shape1-1">
			<title>Solid</title>
			<rect x="0" y="0" width="347.227" height="246.854" class="st1"/>
		</g>
	</g>
	<g>
		<title>Design (black)</title>
		<g id="shape3-3" transform="translate(4.11506,-2.95465)">
			<title>Rectangle</title>
			<desc>Hypervisor A</desc>
			<rect x="0" y="218.508" width="99.2126" height="28.3465" class="st2"/>
			<rect x="11.8279" y="224.281" width="75.5571" height="16.8" class="st3"/>
			<text x="11.83" y="236.88" class="st4">Hypervisor A</text>		</g>
		<g id="shape7-7" transform="translate(39.5481,-38.3877)">
			<title>Rectangle.7</title>
			<desc>RA1</desc>
			<rect x="0" y="204.334" width="28.3465" height="42.5197" class="st2"/>
			<rect x="4.74994" y="217.195" width="18.8468" height="16.8" class="st3"/>
			<text x="4.75" y="229.79" class="st4">R<tspan dy="-0.374em" class="st5">A1</tspan></text>		</g>
		<g id="shape8-12" transform="translate(245.06,-2.95465)">
			<title>Rectangle.8</title>
			<desc>Hypervisor B</desc>
			<rect x="0" y="218.508" width="99.2126" height="28.3465" class="st2"/>
			<rect x="11.8279" y="224.281" width="75.5571" height="16.8" class="st3"/>
			<text x="11.83" y="236.88" class="st4">Hypervisor B</text>		</g>
		<g id="shape9-16" transform="translate(280.493,-38.3877)">
			<title>Rectangle.9</title>
			<desc>RB1</desc>
			<rect x="0" y="204.334" width="28.3465" height="42.5197" class="st2"/>
			<rect x="4.74994" y="217.195" width="18.8468" height="16.8" class="st3"/>
			<text x="4.75" y="229.79" class="st4">R<tspan dy="-0.374em" class="st5">B1</tspan></text>		</g>
		<g id="shape10-21" transform="translate(160.021,-59.6476)">
			<title>Rectangle.10</title>
			<desc>I1</desc>
			<rect x="0" y="204.334" width="28.3465" height="42.5197" class="st2"/>
			<rect x="10.1272" y="217.195" width="8.09198" height="16.8" class="st3"/>
			<text x="10.13" y="229.79" class="st4">I<tspan dy="-0.374em" class="st5">1</tspan></text>		</g>
		<g id="shape11-26" transform="translate(39.5481,-87.994)">
			<title>Rectangle.11</title>
			<desc>RA2</desc>
			<rect x="0" y="204.334" width="28.3465" height="42.5197" class="st2"/>
			<rect x="4.74994" y="217.195" width="18.8468" height="16.8" class="st6"/>
			<text x="4.75" y="229.79" class="st4">R<tspan dy="-0.374em" class="st5">A2</tspan></text>		</g>
		<g id="shape12-31" transform="translate(280.493,-87.994)">
			<title>Rectangle.12</title>
			<desc>RB2</desc>
			<rect x="0" y="204.334" width="28.3465" height="42.5197" class="st2"/>
			<rect x="4.74994" y="217.195" width="18.8468" height="16.8" class="st3"/>
			<text x="4.75" y="229.79" class="st4">R<tspan dy="-0.374em" class="st5">B2</tspan></text>		</g>
		<g id="shape13-36" transform="translate(160.021,-109.254)">
			<title>Rectangle.13</title>
			<desc>I2</desc>
			<rect x="0" y="204.334" width="28.3465" height="42.5197" class="st2"/>
			<rect x="10.1272" y="217.195" width="8.09198" height="16.8" class="st3"/>
			<text x="10.13" y="229.79" class="st4">I<tspan dy="-0.374em" class="st5">2</tspan></text>		</g>
		<g id="shape14-41" transform="translate(67.8946,-59.6476)">
			<title>Dynamic connector</title>
			<desc>fA1</desc>
			<path d="M0 246.85 L85.75 227.06" class="st7"/>
			<rect x="41.032" y="230.224" width="10.0621" height="12.0001" class="st6"/>
			<text x="41.03" y="239.22" class="st9">f<tspan dy="-0.374em" class="st10">A1</tspan></text>		</g>
		<g id="shape15-50" transform="translate(67.8946,-109.254)">
			<title>Dynamic connector.15</title>
			<desc>fA2</desc>
			<path d="M0 246.85 L85.75 227.06" class="st7"/>
			<rect x="41.032" y="230.224" width="10.0621" height="12.0001" class="st3"/>
			<text x="41.03" y="239.22" class="st9">f<tspan dy="-0.374em" class="st10">A2</tspan></text>		</g>
		<g id="shape16-58" transform="translate(188.367,-130.514)">
			<title>Dynamic connector.16</title>
			<desc>gB2</desc>
			<path d="M0 246.85 L85.75 266.64" class="st7"/>
			<rect x="40.0619" y="251.484" width="12.0023" height="12.0001" class="st6"/>
			<text x="40.06" y="260.48" class="st9">g<tspan dy="-0.374em" class="st10">B2</tspan></text>		</g>
		<g id="shape17-66" transform="translate(188.367,-80.9074)">
			<title>Dynamic connector.17</title>
			<desc>gB1</desc>
			<path d="M0 246.85 L85.75 266.64" class="st7"/>
			<rect x="40.0619" y="251.484" width="12.0023" height="12.0001" class="st6"/>
			<text x="40.06" y="260.48" class="st9">g<tspan dy="-0.374em" class="st10">B1</tspan></text>		</g>
		<g id="shape18-74" transform="translate(124.588,-215.553)">
			<title>Rectangle.18</title>
			<desc>Hypervisor C</desc>
			<rect x="0" y="218.508" width="99.2126" height="28.3465" class="st2"/>
			<rect x="12.0237" y="224.281" width="75.1652" height="16.8" class="st3"/>
			<text x="12.02" y="236.88" class="st4">Hypervisor C</text>		</g>
		<g id="shape19-78" transform="translate(160.021,-165.947)">
			<title>Rectangle.19</title>
			<desc>RC1</desc>
			<rect x="0" y="204.334" width="28.3465" height="42.5197" class="st2"/>
			<rect x="4.86749" y="217.195" width="18.6117" height="16.8" class="st3"/>
			<text x="4.87" y="229.79" class="st4">R<tspan dy="-0.374em" class="st5">C1</tspan></text>		</g>
		<g id="shape20-83" transform="translate(103.328,-10.0413)">
			<title>Dynamic connector.20</title>
			<desc>kAB</desc>
			<path d="M0 239.77 L135.19 239.77" class="st7"/>
			<rect x="64.419" y="233.768" width="12.8941" height="12.0001" class="st3"/>
			<text x="64.42" y="242.77" class="st9">k<tspan dy="-0.374em" class="st10">AB</tspan></text>		</g>
		<g id="shape22-91" transform="translate(18.2883,-31.3011)">
			<title>Dynamic connector.22</title>
			<desc>kAC</desc>
			<path d="M0 246.85 C-0 197.25 0 117.03 23.16 80.05 C41.39 50.95 73.97 48.63 99.76 48.45 L100.12 48.44" class="st11"/>
			<rect x="3.18329" y="109.685" width="12.726" height="12.0001" class="st3"/>
			<text x="3.18" y="118.69" class="st9">k<tspan dy="-0.374em" class="st10">AC</tspan></text>		</g>
		<g id="shape23-100" transform="translate(181.28,-80.9074)">
			<title>Dynamic connector.23</title>
			<desc>gC1</desc>
			<path d="M7.09 246.85 C17.72 246.85 49.61 195.48 49.61 168.9 C49.61 146.59 27.13 141.76 13.62 140.79 L13.26 140.77"
					class="st11"/>
			<rect x="40.7709" y="179.651" width="11.8342" height="12.0001" class="st3"/>
			<text x="40.77" y="188.65" class="st9">g<tspan dy="-0.374em" class="st10">C1</tspan></text>		</g>
		<g id="shape24-108" transform="translate(46.6347,-91.5373)">
			<title>Dynamic connector.24</title>
			<path d="M7.09 250.4 L7.09 257.48" class="st12"/>
		</g>
		<g id="shape25-111" transform="translate(46.6348,-41.931)">
			<title>Dynamic connector.25</title>
			<path d="M7.09 250.4 L7.09 257.48" class="st12"/>
		</g>
		<g id="shape26-114" transform="translate(287.58,-91.5373)">
			<title>Dynamic connector.26</title>
			<path d="M7.09 250.4 L7.09 257.48" class="st12"/>
		</g>
		<g id="shape27-117" transform="translate(287.58,-41.931)">
			<title>Dynamic connector.27</title>
			<path d="M7.09 250.4 L7.09 257.48" class="st12"/>
		</g>
		<g id="shape28-120" transform="translate(167.107,-219.096)">
			<title>Dynamic connector.28</title>
			<path d="M7.09 250.4 L7.09 257.48" class="st12"/>
		</g>
		<g id="shape30-123" transform="translate(106.282,-54.6476)">
			<title>Sheet.30</title>
			<desc>(1)</desc>
			<rect x="0" y="236.854" width="18.3052" height="10" class="st1"/>
			<rect x="4.04077" y="237.054" width="10.2239" height="9.59985" class="st6"/>
			<text x="4.04" y="244.25" class="st13">(1)</text>		</g>
		<g id="shape36-127" transform="translate(165.041,-21.3011)">
			<title>Sheet.36</title>
			<desc>(2)</desc>
			<rect x="0" y="236.854" width="18.3052" height="10" class="st1"/>
			<rect x="4.04077" y="237.054" width="10.2239" height="9.59985" class="st6"/>
			<text x="4.04" y="244.25" class="st13">(2)</text>		</g>
		<g id="shape37-131" transform="translate(223.8,-54.6476)">
			<title>Sheet.37</title>
			<desc>(3)</desc>
			<rect x="0" y="236.854" width="18.3052" height="10" class="st1"/>
			<rect x="4.04077" y="237.054" width="10.2239" height="9.59985" class="st3"/>
			<text x="4.04" y="244.25" class="st13">(3)</text>		</g>
		<g id="shape38-135" transform="translate(121.633,-54.6476)">
			<title>Dynamic connector.38</title>
			<path d="M0 246.85 L40.82 267.87" class="st14"/>
		</g>
		<g id="shape39-141" transform="translate(181.16,-31.3011)">
			<title>Dynamic connector.39</title>
			<path d="M0 246.85 L41.65 225.81" class="st14"/>
		</g>
	</g>
</svg>
