<svg width="960" height="720" xmlns="http://www.w3.org/2000/svg" xmlns:xlink="http://www.w3.org/1999/xlink" overflow="hidden"><defs><clipPath id="clip0"><path d="M0 0 960 0 960 720 0 720Z" fill-rule="evenodd" clip-rule="evenodd"/></clipPath></defs><g clip-path="url(#clip0)"><rect x="0" y="0" width="960" height="720" fill="#FFFFFF"/><rect x="152" y="149" width="682" height="315"/><text fill="#FFFFFF" font-family="Latin Modern Sans 10,Latin Modern Sans 10_MSFontService,sans-serif" font-weight="400" font-size="16" transform="translate(292.147 169)">Kexec<tspan x="45.3333" y="0">limit</tspan></text><path d="M0 0 0.880735 233.358" stroke="#525252" stroke-miterlimit="8" fill="none" fill-rule="evenodd" transform="matrix(-1 -8.74228e-08 -8.74228e-08 1 309.381 176.5)"/><path d="M224.631 220.018 228.491 221.068 228.228 222.033 224.369 220.982ZM231.386 221.856 235.245 222.906 234.983 223.871 231.123 222.821ZM238.14 223.694 242 224.744 241.737 225.709 237.877 224.659ZM244.894 225.532 248.754 226.582 248.491 227.547 244.632 226.497ZM251.649 227.37 255.508 228.421 255.246 229.385 251.386 228.335ZM258.403 229.208 262.263 230.259 262 231.224 258.14 230.173ZM265.157 231.047 269.017 232.097 268.754 233.062 264.895 232.011ZM271.912 232.885 275.771 233.935 275.509 234.9 271.649 233.85ZM278.666 234.723 282.526 235.773 282.263 236.738 278.404 235.688ZM285.42 236.561 289.28 237.611 289.017 238.576 285.158 237.526ZM292.175 238.399 296.034 239.45 295.772 240.414 291.912 239.364ZM298.929 240.237 302.789 241.288 302.526 242.253 298.667 241.202ZM305.683 242.075 309.543 243.126 309.281 244.091 305.421 243.04ZM312.438 243.914 316.297 244.964 316.035 245.929 312.175 244.879ZM319.192 245.752 323.052 246.802 322.789 247.767 318.93 246.717ZM325.947 247.59 329.806 248.64 329.544 249.605 325.684 248.555ZM332.701 249.428 336.56 250.478 336.298 251.443 332.438 250.393ZM339.455 251.266 343.315 252.317 343.052 253.281 339.193 252.231ZM346.21 253.104 350.069 254.155 349.807 255.12 345.947 254.069ZM352.964 254.943 356.824 255.993 356.561 256.958 352.701 255.907ZM359.718 256.781 363.578 257.831 363.315 258.796 359.456 257.746ZM366.473 258.619 370.332 259.669 370.07 260.634 366.21 259.584ZM373.227 260.457 377.087 261.507 376.824 262.472 372.964 261.422ZM379.981 262.295 383.841 263.345 383.578 264.31 379.719 263.26ZM386.736 264.133 390.595 265.184 390.333 266.149 386.473 265.098ZM393.49 265.971 397.35 267.022 397.087 267.987 393.227 266.936ZM400.244 267.81 404.104 268.86 403.841 269.825 399.982 268.775ZM406.999 269.648 410.858 270.698 410.596 271.663 406.736 270.613ZM413.753 271.486 417.613 272.536 417.35 273.501 413.49 272.451ZM420.507 273.324 424.367 274.374 424.104 275.339 420.245 274.289ZM427.262 275.162 431.121 276.213 430.859 277.177 426.999 276.127ZM434.016 277 437.876 278.051 437.613 279.016 433.753 277.965ZM440.77 278.839 444.63 279.889 444.367 280.854 440.508 279.803ZM447.525 280.677 451.384 281.727 451.122 282.692 447.262 281.642ZM454.279 282.515 458.139 283.565 457.876 284.53 454.017 283.48ZM461.033 284.353 461.722 284.54 461.459 285.505 460.771 285.318ZM461.354 280.813 468.023 286.773 459.253 288.532Z" fill="#70AD47"/><path d="M301.631 220.018 305.491 221.068 305.228 222.033 301.369 220.982ZM308.386 221.856 312.245 222.906 311.983 223.871 308.123 222.821ZM315.14 223.694 319 224.744 318.737 225.709 314.877 224.659ZM321.894 225.532 325.754 226.582 325.491 227.547 321.632 226.497ZM328.649 227.37 332.508 228.421 332.246 229.385 328.386 228.335ZM335.403 229.208 339.263 230.259 339 231.224 335.141 230.173ZM342.157 231.047 346.017 232.097 345.754 233.062 341.895 232.011ZM348.912 232.885 352.771 233.935 352.509 234.9 348.649 233.85ZM355.666 234.723 359.526 235.773 359.263 236.738 355.404 235.688ZM362.42 236.561 366.28 237.611 366.018 238.576 362.158 237.526ZM369.175 238.399 373.034 239.45 372.772 240.414 368.912 239.364ZM375.929 240.237 379.789 241.288 379.526 242.253 375.667 241.202ZM382.684 242.075 386.543 243.126 386.281 244.091 382.421 243.04ZM389.438 243.914 393.297 244.964 393.035 245.929 389.175 244.879ZM396.192 245.752 400.052 246.802 399.789 247.767 395.93 246.717ZM402.947 247.59 406.806 248.64 406.544 249.605 402.684 248.555ZM409.701 249.428 413.56 250.478 413.298 251.443 409.438 250.393ZM416.455 251.266 420.315 252.317 420.052 253.281 416.193 252.231ZM423.21 253.104 427.069 254.155 426.807 255.12 422.947 254.069ZM429.964 254.943 433.824 255.993 433.561 256.958 429.701 255.907ZM436.718 256.781 440.578 257.831 440.315 258.796 436.456 257.746ZM443.473 258.619 447.332 259.669 447.07 260.634 443.21 259.584ZM450.227 260.457 454.087 261.507 453.824 262.472 449.964 261.422ZM456.981 262.295 460.841 263.345 460.578 264.31 456.719 263.26ZM463.736 264.133 467.595 265.184 467.333 266.149 463.473 265.098ZM470.49 265.971 474.35 267.022 474.087 267.987 470.227 266.936ZM477.244 267.81 481.104 268.86 480.841 269.825 476.982 268.775ZM483.999 269.648 487.858 270.698 487.596 271.663 483.736 270.613ZM490.753 271.486 494.613 272.536 494.35 273.501 490.49 272.451ZM497.507 273.324 501.367 274.374 501.104 275.339 497.245 274.289ZM504.262 275.162 508.121 276.213 507.859 277.177 503.999 276.127ZM511.016 277 514.876 278.051 514.613 279.016 510.753 277.965ZM517.77 278.839 521.63 279.889 521.367 280.854 517.508 279.803ZM524.525 280.677 528.384 281.727 528.122 282.692 524.262 281.642ZM531.279 282.515 535.139 283.565 534.876 284.53 531.017 283.48ZM538.034 284.353 538.722 284.54 538.459 285.505 537.771 285.318ZM538.354 280.813 545.023 286.773 536.253 288.532Z" fill="#70AD47"/><rect x="185.5" y="191.5" width="617" height="29" stroke="#787878" stroke-miterlimit="8" fill="#A5A5A5"/><rect x="555.5" y="191.5" width="68" height="29" stroke="#AE5A21" stroke-miterlimit="8" fill="#ED7D31"/><text fill="#FFFFFF" font-family="Latin Modern Sans 10,Latin Modern Sans 10_MSFontService,sans-serif" font-weight="400" font-size="16" transform="translate(566.211 211)">VM 2*</text><rect x="659.5" y="191.5" width="135" height="29" stroke="#507E32" stroke-miterlimit="8" fill="#70AD47"/><text fill="#FFFFFF" font-family="Latin Modern Sans 10,Latin Modern Sans 10_MSFontService,sans-serif" font-weight="400" font-size="16" transform="translate(703.165 211)">VM 1*</text><rect x="330.5" y="191.5" width="215" height="29" stroke="#787878" stroke-miterlimit="8" fill="#525252"/><text fill="#FFFFFF" font-family="Latin Modern Sans 10,Latin Modern Sans 10_MSFontService,sans-serif" font-weight="400" font-size="16" transform="translate(368.781 211)">Temporary memory*</text><rect x="224.5" y="191.5" width="77" height="29" stroke="#507E32" stroke-miterlimit="8" fill="#70AD47"/><text fill="#FFFFFF" font-family="Latin Modern Sans 10,Latin Modern Sans 10_MSFontService,sans-serif" font-weight="400" font-size="16" transform="translate(239.459 211)">VM 1*<tspan x="-76.9142" y="-1">1.</tspan></text><rect x="185.5" y="286.5" width="617" height="29" stroke="#787878" stroke-miterlimit="8" fill="#A5A5A5"/><rect x="555.5" y="286.5" width="68" height="29" stroke="#AE5A21" stroke-miterlimit="8" fill="#ED7D31"/><text fill="#FFFFFF" font-family="Latin Modern Sans 10,Latin Modern Sans 10_MSFontService,sans-serif" font-weight="400" font-size="16" transform="translate(566.211 306)">VM 2*</text><rect x="659.5" y="286.5" width="135" height="29" stroke="#507E32" stroke-miterlimit="8" fill="#70AD47"/><text fill="#FFFFFF" font-family="Latin Modern Sans 10,Latin Modern Sans 10_MSFontService,sans-serif" font-weight="400" font-size="16" transform="translate(703.165 306)">VM 1*</text><rect x="467.5" y="286.5" width="78" height="29" stroke="#507E32" stroke-miterlimit="8" fill="#70AD47"/><text fill="#FFFFFF" font-family="Latin Modern Sans 10,Latin Modern Sans 10_MSFontService,sans-serif" font-weight="400" font-size="16" transform="translate(482.982 306)">VM 1*</text><rect x="185.5" y="286.5" width="123" height="29" stroke="#2F528F" stroke-miterlimit="8" fill="#4472C4"/><text fill="#FFFFFF" font-family="Latin Modern Sans 10,Latin Modern Sans 10_MSFontService,sans-serif" font-weight="400" font-size="16" transform="translate(203.522 306)">Kexec<tspan x="45.3333" y="0">region</tspan><tspan x="-42.1619" y="-1">2.</tspan></text><rect x="330.5" y="358.5" width="329" height="45" stroke="#FF0000" stroke-miterlimit="8" fill="none"/><rect x="185.5" y="381.5" width="617" height="29" stroke="#787878" stroke-miterlimit="8" fill="#A5A5A5"/><rect x="555.5" y="381.5" width="68" height="29" stroke="#AE5A21" stroke-miterlimit="8" fill="#ED7D31"/><text fill="#FFFFFF" font-family="Latin Modern Sans 10,Latin Modern Sans 10_MSFontService,sans-serif" font-weight="400" font-size="16" transform="translate(566.211 401)">VM 2*</text><rect x="330.5" y="381.5" width="20" height="29" stroke="#C00000" stroke-miterlimit="8" fill="#FF0000"/><rect x="659.5" y="381.5" width="135" height="29" stroke="#507E32" stroke-miterlimit="8" fill="#70AD47"/><text fill="#FFFFFF" font-family="Latin Modern Sans 10,Latin Modern Sans 10_MSFontService,sans-serif" font-weight="400" font-size="16" transform="translate(703.165 401)">VM 1*</text><rect x="467.5" y="381.5" width="78" height="29" stroke="#507E32" stroke-miterlimit="8" fill="#70AD47"/><text fill="#FFFFFF" font-family="Latin Modern Sans 10,Latin Modern Sans 10_MSFontService,sans-serif" font-weight="400" font-size="16" transform="translate(482.982 401)">VM 1*</text><rect x="185.5" y="381.5" width="123" height="29" stroke="#2F528F" stroke-miterlimit="8" fill="#4472C4"/><text fill="#FFFFFF" font-family="Latin Modern Sans 10,Latin Modern Sans 10_MSFontService,sans-serif" font-weight="400" font-size="16" transform="translate(203.522 401)">Kexec<tspan x="45.3333" y="0">region</tspan><tspan x="-42.1619" y="-1">3.</tspan></text><path d="M468 358.5 468 373.836 467 373.836 467 358.5ZM471.5 372.503 467.5 380.503 463.5 372.503Z" fill="#FF0000"/><path d="M556 358.5 556 374.285 555 374.285 555 358.5ZM559.5 372.951 555.5 380.951 551.5 372.951Z" fill="#FF0000"/><path d="M660 360.5 660 374.559 659 374.559 659 360.5ZM663.5 373.226 659.5 381.226 655.5 373.226Z" fill="#FF0000"/><rect x="330.5" y="286.5" width="137" height="30" stroke="#787878" stroke-miterlimit="8" fill="#525252"/><text fill="#FFFFFF" font-family="Latin Modern Sans 10,Latin Modern Sans 10_MSFontService,sans-serif" font-weight="400" font-size="16" transform="translate(344.555 306)">Temp. memory*</text><rect x="595.5" y="422.5" width="19" height="29" stroke="#C00000" stroke-miterlimit="8" fill="#FF0000"/><text fill="#FFFFFF" font-family="Latin Modern Sans 10,Latin Modern Sans 10_MSFontService,sans-serif" font-weight="400" font-size="16" transform="translate(623.667 442)">PRAM metadata blocks*</text></g></svg>