<svg width="960" height="720" xmlns="http://www.w3.org/2000/svg" xmlns:xlink="http://www.w3.org/1999/xlink" overflow="hidden"><defs><clipPath id="clip0"><path d="M0 0 960 0 960 720 0 720Z" fill-rule="evenodd" clip-rule="evenodd"/></clipPath></defs><g clip-path="url(#clip0)"><rect x="0" y="0" width="960" height="720" fill="#FFFFFF"/><rect x="152" y="191" width="682" height="219"/><rect x="185.5" y="191.5" width="617" height="29" stroke="#787878" stroke-miterlimit="8" fill="#A5A5A5"/><rect x="308.5" y="191.5" width="494" height="29" stroke="#787878" stroke-miterlimit="8" fill="#525252"/><text fill="#FFFFFF" font-family="Latin Modern Sans 10,Latin Modern Sans 10_MSFontService,sans-serif" font-weight="400" font-size="16" transform="translate(528.803 211)">Blocked<tspan x="-366.258" y="-1">1.</tspan></text><rect x="185.5" y="286.5" width="617" height="29" stroke="#787878" stroke-miterlimit="8" fill="#A5A5A5"/><rect x="308.5" y="286.5" width="494" height="29" stroke="#787878" stroke-miterlimit="8" fill="#525252"/><rect x="555.5" y="286.5" width="68" height="29" stroke="#AE5A21" stroke-miterlimit="8" fill="#ED7D31"/><text fill="#FFFFFF" font-family="Latin Modern Sans 10,Latin Modern Sans 10_MSFontService,sans-serif" font-weight="400" font-size="16" transform="translate(566.211 306)">VM 2*</text><rect x="659.5" y="286.5" width="135" height="29" stroke="#507E32" stroke-miterlimit="8" fill="#70AD47"/><text fill="#FFFFFF" font-family="Latin Modern Sans 10,Latin Modern Sans 10_MSFontService,sans-serif" font-weight="400" font-size="16" transform="translate(703.165 306)">VM 1*</text><rect x="467.5" y="286.5" width="78" height="29" stroke="#507E32" stroke-miterlimit="8" fill="#70AD47"/><text fill="#FFFFFF" font-family="Latin Modern Sans 10,Latin Modern Sans 10_MSFontService,sans-serif" font-weight="400" font-size="16" transform="translate(482.982 306)">VM 1*</text><rect x="185.5" y="286.5" width="123" height="29" stroke="#787878" stroke-miterlimit="8" fill="#A5A5A5"/><text fill="#FFFFFF" font-family="Latin Modern Sans 10,Latin Modern Sans 10_MSFontService,sans-serif" font-weight="400" font-size="16" transform="translate(204.412 306)">Xen memory<tspan x="-43.0519" y="-1">2.</tspan></text><rect x="185.5" y="381.5" width="617" height="29" stroke="#787878" stroke-miterlimit="8" fill="#A5A5A5"/><rect x="555.5" y="381.5" width="68" height="29" stroke="#AE5A21" stroke-miterlimit="8" fill="#ED7D31"/><text fill="#FFFFFF" font-family="Latin Modern Sans 10,Latin Modern Sans 10_MSFontService,sans-serif" font-weight="400" font-size="16" transform="translate(566.211 401)">VM 2*</text><rect x="659.5" y="381.5" width="135" height="29" stroke="#507E32" stroke-miterlimit="8" fill="#70AD47"/><text fill="#FFFFFF" font-family="Latin Modern Sans 10,Latin Modern Sans 10_MSFontService,sans-serif" font-weight="400" font-size="16" transform="translate(703.165 401)">VM 1*</text><rect x="467.5" y="381.5" width="78" height="29" stroke="#507E32" stroke-miterlimit="8" fill="#70AD47"/><text fill="#FFFFFF" font-family="Latin Modern Sans 10,Latin Modern Sans 10_MSFontService,sans-serif" font-weight="400" font-size="16" transform="translate(482.982 401)">VM 1*</text><rect x="187" y="386" width="121" height="19" fill="#A5A5A5"/><text fill="#FFFFFF" font-family="Latin Modern Sans 10,Latin Modern Sans 10_MSFontService,sans-serif" font-weight="400" font-size="16" transform="translate(205.602 401)">Xen memory<tspan x="-44.2414" y="0">3.</tspan></text><rect x="185.5" y="191.5" width="123" height="29" stroke="#787878" stroke-miterlimit="8" fill="#A5A5A5"/><text fill="#FFFFFF" font-family="Latin Modern Sans 10,Latin Modern Sans 10_MSFontService,sans-serif" font-weight="400" font-size="16" transform="translate(204.412 211)">Xen memory</text><rect x="330.5" y="381.5" width="20" height="29" stroke="#C00000" stroke-miterlimit="8" fill="#FF0000"/><rect x="330.5" y="286.5" width="20" height="29" stroke="#C00000" stroke-miterlimit="8" fill="#FF0000"/></g></svg>