<?xml version="1.0" encoding="UTF-8" standalone="no"?>
<!DOCTYPE svg PUBLIC "-//W3C//DTD SVG 1.1//EN" "http://www.w3.org/Graphics/SVG/1.1/DTD/svg11.dtd">
<!-- Generated by Microsoft Visio, SVG Export pram.svg Page-4 -->
<svg xmlns="http://www.w3.org/2000/svg" xmlns:xlink="http://www.w3.org/1999/xlink" xmlns:ev="http://www.w3.org/2001/xml-events"
		width="7.12765in" height="4.21593in" viewBox="0 0 513.191 303.547" xml:space="preserve" color-interpolation-filters="sRGB"
		class="st9">
	<style type="text/css">
	<![CDATA[
		.st1 {fill:#ffffff;stroke:#ff0000;stroke-linecap:round;stroke-linejoin:round;stroke-width:0.75}
		.st2 {fill:#ffffff;stroke:#0070c0;stroke-linecap:round;stroke-linejoin:round;stroke-width:0.75}
		.st3 {fill:#ffffff;stroke:#000000;stroke-linecap:round;stroke-linejoin:round;stroke-width:0.24}
		.st4 {fill:#000000;font-family:LM Sans 10;font-size:1.16666em}
		.st5 {marker-end:url(#mrkr4-69);stroke:#000000;stroke-linecap:round;stroke-linejoin:round;stroke-width:0.75}
		.st6 {fill:#000000;fill-opacity:1;stroke:#000000;stroke-opacity:1;stroke-width:0.22935779816514}
		.st7 {fill:#ffffff;stroke:#00b050;stroke-linecap:round;stroke-linejoin:round;stroke-width:0.75}
		.st8 {stroke:#000000;stroke-dasharray:5.25,3.75;stroke-linecap:round;stroke-linejoin:round;stroke-width:0.75}
		.st9 {fill:none;fill-rule:evenodd;font-size:12px;overflow:visible;stroke-linecap:square;stroke-miterlimit:3}
	]]>
	</style>

	<defs id="Patterns_And_Gradients">
		<linearGradient id="grad0-11" x1="0" y1="0" x2="1" y2="0" gradientTransform="rotate(90 0.5 0.5)">
			<stop offset="0.01" stop-color="#ffffff" stop-opacity="1"/>
			<stop offset="0.5" stop-color="#fefefe" stop-opacity="1"/>
			<stop offset="1" stop-color="#ffffff" stop-opacity="1"/>
		</linearGradient>
		<linearGradient id="grad0-15" x1="0" y1="0" x2="1" y2="0" gradientTransform="rotate(270 0.5 0.5)">
			<stop offset="0" stop-color="#fefefe" stop-opacity="1"/>
			<stop offset="1" stop-color="#ffffff" stop-opacity="1"/>
		</linearGradient>
	</defs>
	<defs id="Markers">
		<g id="lend4">
			<path d="M 2 1 L 0 0 L 2 -1 L 2 1 " style="stroke:none"/>
		</g>
		<marker id="mrkr4-69" class="st6" refX="-8.72" orient="auto" markerUnits="strokeWidth" overflow="visible">
			<use xlink:href="#lend4" transform="scale(-4.36,-4.36) "/>
		</marker>
	</defs>
	<g>
		<title>Page-4</title>
		<g id="group26-1" transform="translate(22.7972,-178.703)">
			<title>Plain</title>
			<g id="group27-2">
				<title>Sheet.27</title>
				<g id="shape28-3" transform="translate(2.83465,2.83465)">
					<title>Sheet.28</title>
				</g>
				<g id="shape27-5">
					<path d="M0 303.55 L58.11 303.55 L116.22 303.55 L116.22 229.85 L58.11 229.85 L0 229.85 L0 303.55 Z" class="st1"/>
				</g>
			</g>
			<g id="group29-7" transform="translate(0,-73.7008)">
				<title>Sheet.29</title>
				<desc>Heading</desc>
				<g id="shape30-8">
					<title>Sheet.30</title>
				</g>
				<g id="shape29-12"/>
			</g>
		</g>
		<g id="group31-16" transform="translate(22.7972,-65.3169)">
			<title>Plain.31</title>
			<g id="group32-17">
				<title>Sheet.32</title>
				<g id="shape33-18" transform="translate(2.83465,2.83465)">
					<title>Sheet.33</title>
				</g>
				<g id="shape32-20">
					<path d="M0 303.55 L58.11 303.55 L116.22 303.55 L116.22 229.85 L58.11 229.85 L0 229.85 L0 303.55 Z" class="st1"/>
				</g>
			</g>
			<g id="group34-22" transform="translate(0,-73.7008)">
				<title>Sheet.34</title>
				<desc>Heading</desc>
				<g id="shape35-23">
					<title>Sheet.35</title>
				</g>
				<g id="shape34-26"/>
			</g>
		</g>
		<g id="group67-29" transform="translate(277.915,-136.183)">
			<title>Plain.67</title>
			<g id="group68-30">
				<title>Sheet.68</title>
				<g id="shape69-31" transform="translate(2.83465,2.83465)">
					<title>Sheet.69</title>
				</g>
				<g id="shape68-33">
					<path d="M0 303.55 L51.02 303.55 L102.05 303.55 L102.05 173.15 L51.02 173.15 L0 173.15 L0 303.55 Z" class="st2"/>
				</g>
			</g>
			<g id="group70-35" transform="translate(0,-130.394)">
				<title>Sheet.70</title>
				<desc>Heading</desc>
				<g id="shape71-36">
					<title>Sheet.71</title>
				</g>
				<g id="shape70-39"/>
			</g>
		</g>
		<g id="group111-42" transform="translate(405.474,-136.183)">
			<title>Plain.111</title>
			<g id="group112-43">
				<title>Sheet.112</title>
				<g id="shape113-44" transform="translate(2.83465,2.83465)">
					<title>Sheet.113</title>
				</g>
				<g id="shape112-46">
					<path d="M0 303.55 L51.02 303.55 L102.05 303.55 L102.05 173.15 L51.02 173.15 L0 173.15 L0 303.55 Z" class="st2"/>
				</g>
			</g>
			<g id="group114-48" transform="translate(0,-130.394)">
				<title>Sheet.114</title>
				<desc>Heading</desc>
				<g id="shape115-49">
					<title>Sheet.115</title>
				</g>
				<g id="shape114-52"/>
			</g>
		</g>
		<g id="shape1-55" transform="translate(31.3011,-215.553)">
			<title>Rectangle</title>
			<desc>File pointer</desc>
			<rect x="0" y="275.201" width="99.2126" height="28.3465" class="st3"/>
			<text x="16.4" y="293.57" class="st4">File pointer</text>		</g>
		<g id="shape4-58" transform="translate(31.3011,-102.167)">
			<title>Rectangle.4</title>
			<desc>File pointer</desc>
			<rect x="0" y="275.201" width="99.2126" height="28.3465" class="st3"/>
			<text x="16.4" y="293.57" class="st4">File pointer</text>		</g>
		<g id="shape5-61" transform="translate(31.3011,-73.8208)">
			<title>Rectangle.5</title>
			<desc>File pointer</desc>
			<rect x="0" y="275.201" width="99.2126" height="28.3465" class="st3"/>
			<text x="16.4" y="293.57" class="st4">File pointer</text>		</g>
		<g id="shape7-64" transform="translate(73.8208,-178.703)">
			<title>Dynamic connector</title>
			<path d="M7.09 303.55 L7.09 336.69" class="st5"/>
		</g>
		<g id="shape12-70" transform="translate(173.033,-229.726)">
			<title>Rectangle.12</title>
			<desc>File info</desc>
			<rect x="0" y="275.201" width="70.8661" height="28.3465" class="st7"/>
			<text x="11.73" y="293.57" class="st4">File info</text>		</g>
		<g id="shape13-73" transform="translate(173.033,-173.033)">
			<title>Rectangle.13</title>
			<desc>File info</desc>
			<rect x="0" y="275.201" width="70.8661" height="28.3465" class="st7"/>
			<text x="11.73" y="293.57" class="st4">File info</text>		</g>
		<g id="shape15-76" transform="translate(173.033,-116.34)">
			<title>Rectangle.15</title>
			<desc>File info</desc>
			<rect x="0" y="275.201" width="70.8661" height="28.3465" class="st7"/>
			<text x="11.73" y="293.57" class="st4">File info</text>		</g>
		<g id="shape16-79" transform="translate(173.033,-59.6476)">
			<title>Rectangle.16</title>
			<desc>File info</desc>
			<rect x="0" y="275.201" width="70.8661" height="28.3465" class="st7"/>
			<text x="11.73" y="293.57" class="st4">File info</text>		</g>
		<g id="shape18-82" transform="translate(31.3011,-187.207)">
			<title>Rectangle.18</title>
			<desc>File pointer</desc>
			<rect x="0" y="275.201" width="99.2126" height="28.3465" class="st3"/>
			<text x="16.4" y="293.57" class="st4">File pointer</text>		</g>
		<g id="shape19-85" transform="translate(130.514,-229.726)">
			<title>Dynamic connector.19</title>
			<path d="M0 303.55 L36.32 291.44" class="st5"/>
		</g>
		<g id="shape20-90" transform="translate(130.514,-201.38)">
			<title>Dynamic connector.20</title>
			<path d="M0 303.55 L36.32 315.65" class="st5"/>
		</g>
		<g id="shape22-95" transform="translate(130.514,-116.34)">
			<title>Dynamic connector.22</title>
			<path d="M0 303.55 L36.32 291.44" class="st5"/>
		</g>
		<g id="shape23-100" transform="translate(130.514,-87.994)">
			<title>Dynamic connector.23</title>
			<path d="M0 303.55 L36.32 315.65" class="st5"/>
		</g>
		<g id="shape36-105" transform="translate(286.419,-229.726)">
			<title>Rectangle.36</title>
			<desc>Page entry</desc>
			<rect x="0" y="275.201" width="85.0394" height="28.3465" class="st3"/>
			<text x="10.87" y="293.57" class="st4">Page entry</text>		</g>
		<g id="shape64-108" transform="translate(286.419,-201.38)">
			<title>Rectangle.64</title>
			<desc>Page entry</desc>
			<rect x="0" y="275.201" width="85.0394" height="28.3465" class="st3"/>
			<text x="10.87" y="293.57" class="st4">Page entry</text>		</g>
		<g id="shape65-111" transform="translate(286.419,-173.033)">
			<title>Rectangle.65</title>
			<desc>Page entry</desc>
			<rect x="0" y="275.201" width="85.0394" height="28.3465" class="st3"/>
			<text x="10.87" y="293.57" class="st4">Page entry</text>		</g>
		<g id="shape66-114" transform="translate(286.419,-144.687)">
			<title>Rectangle.66</title>
			<desc>Page entry</desc>
			<rect x="0" y="275.201" width="85.0394" height="28.3465" class="st3"/>
			<text x="10.87" y="293.57" class="st4">Page entry</text>		</g>
		<g id="shape72-117" transform="translate(243.9,-243.9)">
			<title>Dynamic connector.72</title>
			<path d="M0 303.55 L28.93 284.47" class="st5"/>
		</g>
		<g id="shape74-122" transform="translate(300.592,-73.8208)">
			<title>Rectangle.74</title>
			<desc>GFN</desc>
			<rect x="0" y="275.201" width="56.6929" height="28.3465" class="st3"/>
			<text x="14.74" y="293.57" class="st4">GFN</text>		</g>
		<g id="shape75-125" transform="translate(357.285,-73.8208)">
			<title>Rectangle.75</title>
			<desc>Size</desc>
			<rect x="0" y="275.201" width="56.6929" height="28.3465" class="st3"/>
			<text x="16.63" y="293.57" class="st4">Size</text>		</g>
		<g id="shape76-128" transform="translate(286.419,-144.687)">
			<title>Dynamic connector.76</title>
			<path d="M0 303.55 L14.17 346.07" class="st8"/>
		</g>
		<g id="shape77-131" transform="translate(371.459,-144.687)">
			<title>Dynamic connector.77</title>
			<path d="M0 303.55 L19.09 311.73 A2.3622 2.3622 0 0 1 23.43 313.59 L99.21 346.07" class="st8"/>
		</g>
		<g id="shape87-134" transform="translate(328.939,-136.183)">
			<title>Dynamic connector.87</title>
			<path d="M0 303.55 L0 315.32 L63.78 315.32 L63.78 173.15 L70 173.15" class="st5"/>
		</g>
		<g id="shape88-139" transform="translate(158.86,-2.95465)">
			<title>Rectangle.88</title>
			<desc>Size</desc>
			<rect x="0" y="275.201" width="56.6929" height="28.3465" class="st3"/>
			<text x="16.63" y="293.57" class="st4">Size</text>		</g>
		<g id="shape89-142" transform="translate(215.553,-2.95465)">
			<title>Rectangle.89</title>
			<desc>Mode</desc>
			<rect x="0" y="275.201" width="56.6929" height="28.3465" class="st3"/>
			<text x="11.99" y="293.57" class="st4">Mode</text>		</g>
		<g id="shape90-145" transform="translate(272.246,-2.95465)">
			<title>Rectangle.90</title>
			<desc>Name</desc>
			<rect x="0" y="275.201" width="56.6929" height="28.3465" class="st3"/>
			<text x="11.36" y="293.57" class="st4">Name</text>		</g>
		<g id="shape91-148" transform="translate(173.033,-59.6476)">
			<title>Dynamic connector.91</title>
			<path d="M-0 303.55 L-14.17 331.89" class="st8"/>
		</g>
		<g id="shape92-151" transform="translate(243.9,-59.6476)">
			<title>Dynamic connector.92</title>
			<path d="M0 303.55 L85.04 331.89" class="st8"/>
		</g>
		<g id="shape99-154" transform="translate(2.95465,-272.246)">
			<title>Rectangle.99</title>
			<desc>PRAM pointer</desc>
			<rect x="0" y="275.201" width="99.2126" height="28.3465" class="st3"/>
			<text x="7.05" y="293.57" class="st4">PRAM pointer</text>		</g>
		<g id="shape100-157" transform="translate(48.8699,-272.246)">
			<title>Dynamic connector.100</title>
			<path d="M-2.65 303.55 L-8.85 317.42" class="st5"/>
		</g>
		<g id="shape101-162" transform="translate(413.978,-73.8208)">
			<title>Rectangle.101</title>
			<desc>MFN</desc>
			<rect x="0" y="275.201" width="56.6929" height="28.3465" class="st3"/>
			<text x="13.28" y="293.57" class="st4">MFN</text>		</g>
		<g id="shape116-165" transform="translate(413.978,-229.726)">
			<title>Rectangle.116</title>
			<desc>Page entry</desc>
			<rect x="0" y="275.201" width="85.0394" height="28.3465" class="st3"/>
			<text x="10.87" y="293.57" class="st4">Page entry</text>		</g>
		<g id="shape117-168" transform="translate(413.978,-201.38)">
			<title>Rectangle.117</title>
			<desc>Page entry</desc>
			<rect x="0" y="275.201" width="85.0394" height="28.3465" class="st3"/>
			<text x="10.87" y="293.57" class="st4">Page entry</text>		</g>
		<g id="shape118-171" transform="translate(413.978,-173.033)">
			<title>Rectangle.118</title>
			<desc>Page entry</desc>
			<rect x="0" y="275.201" width="85.0394" height="28.3465" class="st3"/>
			<text x="10.87" y="293.57" class="st4">Page entry</text>		</g>
		<g id="shape119-174" transform="translate(413.978,-144.687)">
			<title>Rectangle.119</title>
			<desc>Page entry</desc>
			<rect x="0" y="275.201" width="85.0394" height="28.3465" class="st3"/>
			<text x="10.87" y="293.57" class="st4">Page entry</text>		</g>
	</g>
</svg>
