<svg width="960" height="720" xmlns="http://www.w3.org/2000/svg" xmlns:xlink="http://www.w3.org/1999/xlink" overflow="hidden"><defs><clipPath id="clip0"><path d="M0 0 960 0 960 720 0 720Z" fill-rule="evenodd" clip-rule="evenodd"/></clipPath></defs><g clip-path="url(#clip0)"><rect x="0" y="0" width="960" height="720" fill="#FFFFFF"/><rect x="64" y="27" width="832" height="666"/><path d="M227.5 27.5 227.5 180 146 261.5 64.5001 180 64.5001 27.5 146 109Z" stroke="#44546A" stroke-miterlimit="8" fill="#44546A" fill-rule="evenodd"/><text fill="#FFFFFF" font-family="Latin Modern Sans 10,Latin Modern Sans 10_MSFontService,sans-serif" font-weight="400" font-size="48" transform="translate(98.7462 158)">Save</text><path d="M896.5 52.8342 896.5 154.166C896.5 168.158 885.158 179.5 871.166 179.5L227.5 179.5 227.5 27.5001 871.166 27.5001C885.158 27.5001 896.5 38.8426 896.5 52.8342Z" stroke="#44546A" stroke-miterlimit="8" fill="#E7E6E6" fill-rule="evenodd" fill-opacity="0.901961"/><text font-family="Latin Modern Sans 10,Latin Modern Sans 10_MSFontService,sans-serif" font-weight="400" font-size="33" transform="translate(245.811 71)">•<tspan x="26" y="0">Guest preparation</tspan><tspan x="0" y="42">•</tspan><tspan x="26" y="42">Pause VM and save state</tspan><tspan x="0" y="84">•</tspan><tspan x="26" y="84">Create memory mapping</tspan></text><path d="M227.5 243.5 227.5 396 146 477.5 64.5001 396 64.5001 243.5 146 325Z" stroke="#44546A" stroke-miterlimit="8" fill="#44546A" fill-rule="evenodd"/><text fill="#FFFFFF" font-family="Latin Modern Sans 10,Latin Modern Sans 10_MSFontService,sans-serif" font-weight="400" font-size="48" transform="translate(72.8163 374)">Reboot</text><path d="M896.5 268.834 896.5 370.166C896.5 384.158 885.158 395.5 871.166 395.5L227.5 395.5 227.5 243.5 871.166 243.5C885.158 243.5 896.5 254.843 896.5 268.834Z" stroke="#44546A" stroke-miterlimit="8" fill="#E7E6E6" fill-rule="evenodd" fill-opacity="0.901961"/><text font-family="Latin Modern Sans 10,Latin Modern Sans 10_MSFontService,sans-serif" font-weight="400" font-size="33" transform="translate(245.811 308)">•<tspan x="26" y="0">Run </tspan><tspan x="92.0667" y="0">Kexec</tspan><tspan x="0" y="42">•</tspan><tspan x="26" y="42">Start VM restoration agent</tspan></text><path d="M227.5 459.5 227.5 612 146 693.5 64.5001 612 64.5001 459.5 146 541Z" stroke="#44546A" stroke-miterlimit="8" fill="#44546A" fill-rule="evenodd"/><text fill="#FFFFFF" font-family="Latin Modern Sans 10,Latin Modern Sans 10_MSFontService,sans-serif" font-weight="400" font-size="48" transform="translate(96.4129 590)">Load</text><path d="M896.5 484.834 896.5 586.166C896.5 600.158 885.158 611.5 871.166 611.5L227.5 611.5 227.5 459.5 871.166 459.5C885.158 459.5 896.5 470.843 896.5 484.834Z" stroke="#44546A" stroke-miterlimit="8" fill="#E7E6E6" fill-rule="evenodd" fill-opacity="0.901961"/><text font-family="Latin Modern Sans 10,Latin Modern Sans 10_MSFontService,sans-serif" font-weight="400" font-size="33" transform="translate(245.811 503)">•<tspan x="26" y="0">Load VM memory</tspan><tspan x="0" y="42">•</tspan><tspan x="26" y="42">Restore virtual hardware states</tspan><tspan x="0" y="84">•</tspan><tspan x="26" y="84">Resume VM</tspan></text></g></svg>